<?xml version="1.0" encoding="utf-8"?>
<!-- Generator: Adobe Illustrator 19.1.0, SVG Export Plug-In . SVG Version: 6.00 Build 0)  -->
<svg version="1.1" id="Layer_1" xmlns="http://www.w3.org/2000/svg" xmlns:xlink="http://www.w3.org/1999/xlink" x="0px" y="0px"
	 viewBox="0 0 1000 1000" style="enable-background:new 0 0 1000 1000;" xml:space="preserve">
<style type="text/css">
	.st0{fill:#FFFFFF;}
</style>
<g>
	<g>
		<path class="st0" d="M-3,5.2c8.9,4.5,17.9,8.9,26.8,13.4C48.1,30.7,72.4,42.9,96.7,55c35.9,18,71.9,35.9,107.8,53.9
			c43.7,21.8,87.4,43.7,131.1,65.5c47.8,23.9,95.7,47.8,143.5,71.8c48.4,24.2,96.9,48.4,145.3,72.7c45.2,22.6,90.3,45.2,135.5,67.7
			c38.2,19.1,76.3,38.2,114.5,57.2c27.3,13.6,54.6,27.3,81.8,40.9c13,6.5,26,13.1,39.1,19.5c0.6,0.3,1.1,0.6,1.7,0.8
			c6.9,3.4,13-6.9,6.1-10.4c-8.9-4.5-17.9-8.9-26.8-13.4c-24.3-12.1-48.6-24.3-72.9-36.4c-35.9-18-71.9-35.9-107.8-53.9
			c-43.7-21.8-87.4-43.7-131.1-65.5c-47.8-23.9-95.7-47.8-143.5-71.8c-48.4-24.2-96.9-48.4-145.3-72.7
			c-45.2-22.6-90.3-45.2-135.5-67.7c-38.2-19.1-76.3-38.2-114.5-57.2C98.3,42.5,71.1,28.8,43.8,15.2c-13-6.5-26-13.1-39.1-19.5
			C4.1-4.6,3.6-4.9,3-5.2C-3.9-8.6-9.9,1.7-3,5.2L-3,5.2z"/>
	</g>
</g>
<g>
	<g>
		<path class="st0" d="M3,1005.2c8.9-4.5,17.9-8.9,26.8-13.4c24.3-12.1,48.6-24.3,72.9-36.4c35.9-18,71.9-35.9,107.8-53.9
			c43.7-21.8,87.4-43.7,131.1-65.5c47.8-23.9,95.7-47.8,143.5-71.8c48.4-24.2,96.9-48.4,145.3-72.7c45.2-22.6,90.3-45.2,135.5-67.7
			c38.2-19.1,76.3-38.2,114.5-57.2c27.3-13.6,54.6-27.3,81.8-40.9c13-6.5,26.2-12.7,39.1-19.5c0.6-0.3,1.1-0.6,1.7-0.8
			c6.9-3.5,0.8-13.8-6.1-10.4c-8.9,4.5-17.9,8.9-26.8,13.4c-24.3,12.1-48.6,24.3-72.9,36.4c-35.9,18-71.9,35.9-107.8,53.9
			c-43.7,21.8-87.4,43.7-131.1,65.5c-47.8,23.9-95.7,47.8-143.5,71.8c-48.4,24.2-96.9,48.4-145.3,72.7
			c-45.2,22.6-90.3,45.2-135.5,67.7c-38.2,19.1-76.3,38.2-114.5,57.2c-27.3,13.6-54.6,27.3-81.8,40.9c-13,6.5-26.2,12.7-39.1,19.5
			c-0.6,0.3-1.1,0.6-1.7,0.8C-9.9,998.3-3.9,1008.6,3,1005.2L3,1005.2z"/>
	</g>
</g>
</svg>
